HIERARCHY
ROOT Hips
{
	OFFSET -14.64140 90.27770 -84.91600
	CHANNELS 6 Xposition Yposition Zposition Zrotation Xrotation Yrotation
	JOINT Spine
	{
		OFFSET 0.00000 13.20850 -1.60436
		CHANNELS 3 Zrotation Xrotation Yrotation
		JOINT Spine1
		{
			OFFSET 0.00000 8.61716 0.00000
			CHANNELS 3 Zrotation Xrotation Yrotation
			JOINT Spine2
			{
				OFFSET 0.00000 8.61717 0.00000
				CHANNELS 3 Zrotation Xrotation Yrotation
				JOINT Spine3
				{
					OFFSET 0.00000 8.61717 0.00000
					CHANNELS 3 Zrotation Xrotation Yrotation
					JOINT Neck
					{
						OFFSET 0.00000 11.07920 1.10792
						CHANNELS 3 Zrotation Xrotation Yrotation
						JOINT Neck1
						{
							OFFSET 0.00000 7.08032 0.00000
							CHANNELS 3 Zrotation Xrotation Yrotation
							JOINT Head
							{
								OFFSET 0.00000 7.08031 0.00000
								CHANNELS 3 Zrotation Xrotation Yrotation
								End site
								{
									OFFSET 0.00000 0.00000 0.00000
								}
							}
						}
					}
					JOINT RightShoulder
					{
						OFFSET -0.01000 7.91373 5.19711
						CHANNELS 3 Zrotation Xrotation Yrotation
						JOINT RightArm
						{
							OFFSET -18.41580 0.00000 0.00000
							CHANNELS 3 Zrotation Xrotation Yrotation
							JOINT RightForeArm
							{
								OFFSET -29.11090 0.00000 0.00000
								CHANNELS 3 Zrotation Xrotation Yrotation
								JOINT RightHand
								{
									OFFSET -24.65040 0.00000 0.00000
									CHANNELS 3 Zrotation Xrotation Yrotation
									JOINT RightHandThumb1
									{
										OFFSET -5.35114 -0.85590 3.97906
										CHANNELS 3 Zrotation Xrotation Yrotation
										JOINT RightHandThumb2
										{
											OFFSET -4.52789 0.00000 0.00000
											CHANNELS 3 Zrotation Xrotation Yrotation
											JOINT RightHandThumb3
											{
												OFFSET -2.46976 0.00000 0.00000
												CHANNELS 3 Zrotation Xrotation Yrotation
												End site
												{
													OFFSET 0.00000 0.00000 0.00000
												}
											}
										}
									}
									JOINT RightHandIndex1
									{
										OFFSET -14.26970 0.00000 2.88139
										CHANNELS 3 Zrotation Xrotation Yrotation
										JOINT RightHandIndex2
										{
											OFFSET -5.48836 0.00000 0.00000
											CHANNELS 3 Zrotation Xrotation Yrotation
											JOINT RightHandIndex3
											{
												OFFSET -3.01859 0.00000 0.00000
												CHANNELS 3 Zrotation Xrotation Yrotation
												End site
												{
													OFFSET 0.00000 0.00000 0.00000
												}
											}
										}
									}
									JOINT RightHandMiddle1
									{
										OFFSET -14.26970 0.00000 -0.09147
										CHANNELS 3 Zrotation Xrotation Yrotation
										JOINT RightHandMiddle2
										{
											OFFSET -6.17441 0.00000 0.00000
											CHANNELS 3 Zrotation Xrotation Yrotation
											JOINT RightHandMiddle3
											{
												OFFSET -3.56743 0.00000 0.00000
												CHANNELS 3 Zrotation Xrotation Yrotation
												End site
												{
													OFFSET 0.00000 0.00000 0.00000
												}
											}
										}
									}
									JOINT RightHandRing1
									{
										OFFSET -12.69180 0.00000 -3.06433
										CHANNELS 3 Zrotation Xrotation Yrotation
										JOINT RightHandRing2
										{
											OFFSET -5.62556 0.00000 0.00000
											CHANNELS 3 Zrotation Xrotation Yrotation
											JOINT RightHandRing3
											{
												OFFSET -3.56744 0.00000 0.00000
												CHANNELS 3 Zrotation Xrotation Yrotation
												End site
												{
													OFFSET 0.00000 0.00000 0.00000
												}
											}
										}
									}
									JOINT RightHandPinky1
									{
										OFFSET -11.11390 0.00000 -6.03719
										CHANNELS 3 Zrotation Xrotation Yrotation
										JOINT RightHandPinky2
										{
											OFFSET -4.52789 0.00000 0.00000
											CHANNELS 3 Zrotation Xrotation Yrotation
											JOINT RightHandPinky3
											{
												OFFSET -2.46976 0.00000 0.00000
												CHANNELS 3 Zrotation Xrotation Yrotation
												End site
												{
													OFFSET 0.00000 0.00000 0.00000
												}
											}
										}
									}
								}
							}
						}
					}
					JOINT LeftShoulder
					{
						OFFSET 0.01000 7.91373 5.19711
						CHANNELS 3 Zrotation Xrotation Yrotation
						JOINT LeftArm
						{
							OFFSET 18.41580 0.00000 0.00000
							CHANNELS 3 Zrotation Xrotation Yrotation
							JOINT LeftForeArm
							{
								OFFSET 29.11090 0.00000 0.00000
								CHANNELS 3 Zrotation Xrotation Yrotation
								JOINT LeftHand
								{
									OFFSET 24.65040 0.00000 0.00000
									CHANNELS 3 Zrotation Xrotation Yrotation
									JOINT LeftHandThumb1
									{
										OFFSET 5.35114 -0.85590 3.97906
										CHANNELS 3 Zrotation Xrotation Yrotation
										JOINT LeftHandThumb2
										{
											OFFSET 4.52789 0.00000 0.00000
											CHANNELS 3 Zrotation Xrotation Yrotation
											JOINT LeftHandThumb3
											{
												OFFSET 2.46977 0.00000 0.00000
												CHANNELS 3 Zrotation Xrotation Yrotation
												End site
												{
													OFFSET 0.00000 0.00000 0.00000
												}
											}
										}
									}
									JOINT LeftHandIndex1
									{
										OFFSET 14.26970 0.00000 2.88139
										CHANNELS 3 Zrotation Xrotation Yrotation
										JOINT LeftHandIndex2
										{
											OFFSET 5.48836 0.00000 0.00000
											CHANNELS 3 Zrotation Xrotation Yrotation
											JOINT LeftHandIndex3
											{
												OFFSET 3.01859 0.00000 0.00000
												CHANNELS 3 Zrotation Xrotation Yrotation
												End site
												{
													OFFSET 0.00000 0.00000 0.00000
												}
											}
										}
									}
									JOINT LeftHandMiddle1
									{
										OFFSET 14.26970 0.00000 -0.09147
										CHANNELS 3 Zrotation Xrotation Yrotation
										JOINT LeftHandMiddle2
										{
											OFFSET 6.17440 0.00000 0.00000
											CHANNELS 3 Zrotation Xrotation Yrotation
											JOINT LeftHandMiddle3
											{
												OFFSET 3.56744 0.00000 0.00000
												CHANNELS 3 Zrotation Xrotation Yrotation
												End site
												{
													OFFSET 0.00000 0.00000 0.00000
												}
											}
										}
									}
									JOINT LeftHandRing1
									{
										OFFSET 12.69180 0.00000 -3.06433
										CHANNELS 3 Zrotation Xrotation Yrotation
										JOINT LeftHandRing2
										{
											OFFSET 5.62556 0.00000 0.00000
											CHANNELS 3 Zrotation Xrotation Yrotation
											JOINT LeftHandRing3
											{
												OFFSET 3.56744 0.00000 0.00000
												CHANNELS 3 Zrotation Xrotation Yrotation
												End site
												{
													OFFSET 0.00000 0.00000 0.00000
												}
											}
										}
									}
									JOINT LeftHandPinky1
									{
										OFFSET 11.11390 0.00000 -6.03719
										CHANNELS 3 Zrotation Xrotation Yrotation
										JOINT LeftHandPinky2
										{
											OFFSET 4.52789 0.00000 0.00000
											CHANNELS 3 Zrotation Xrotation Yrotation
											JOINT LeftHandPinky3
											{
												OFFSET 2.46976 0.00000 0.00000
												CHANNELS 3 Zrotation Xrotation Yrotation
												End site
												{
													OFFSET 0.00000 0.00000 0.00000
												}
											}
										}
									}
								}
							}
						}
					}
					JOINT pCube4
					{
						OFFSET 0.00000 10.91090 1.10792
						CHANNELS 3 Zrotation Xrotation Yrotation
						End site
						{
							OFFSET 0.00000 0.00000 0.00000
						}
					}
				}
			}
		}
	}
	JOINT RightUpLeg
	{
		OFFSET -9.98441 0.00000 0.00000
		CHANNELS 3 Zrotation Xrotation Yrotation
		JOINT RightLeg
		{
			OFFSET 0.00000 -42.11790 0.00000
			CHANNELS 3 Zrotation Xrotation Yrotation
			JOINT RightFoot
			{
				OFFSET 0.00000 -45.00020 -0.00001
				CHANNELS 3 Zrotation Xrotation Yrotation
				JOINT RightForeFoot
				{
					OFFSET 0.00000 -3.74820 0.00000
					CHANNELS 3 Zrotation Xrotation Yrotation
					JOINT RightToeBase
					{
						OFFSET 0.00000 0.06325 14.43120
						CHANNELS 3 Zrotation Xrotation Yrotation
						End site
						{
							OFFSET 0.00000 0.00000 0.00000
						}
					}
				}
			}
		}
	}
	JOINT LeftUpLeg
	{
		OFFSET 9.98441 0.00000 0.00000
		CHANNELS 3 Zrotation Xrotation Yrotation
		JOINT LeftLeg
		{
			OFFSET 0.00000 -42.11800 0.00000
			CHANNELS 3 Zrotation Xrotation Yrotation
			JOINT LeftFoot
			{
				OFFSET 0.00000 -45.00070 0.00000
				CHANNELS 3 Zrotation Xrotation Yrotation
				JOINT LeftForeFoot
				{
					OFFSET 0.00000 -3.74824 0.00000
					CHANNELS 3 Zrotation Xrotation Yrotation
					JOINT LeftToeBase
					{
						OFFSET 0.00000 0.06325 14.43110
						CHANNELS 3 Zrotation Xrotation Yrotation
						End site
						{
							OFFSET 0.00000 0.00000 0.00000
						}
					}
				}
			}
		}
	}
}
MOTION
Frames: 4
Frame Time: 0.050000
-0.020498088005503783 -0.015600940364383895 -0.023461347110953427 -0.00970085887769357 0.022272787500887764 0.03605474066620177 -3.561492257827917 4.026713097918834 -0.8067163679352594 -0.7600579054511736 4.512147212394672 0.32821991596644423 -0.7786537160529419 -0.21654877293273384 -1.576947963235707 1.430919833936261 0.4697425277828168 -0.9649236598772433 -0.9649816946542066 13.379143498551263 -1.1637784474167194 -0.24491963850523335 -1.014816753301527 -3.3418556449532733 0.12236359958084331 -15.605474537482106 -0.2710035979725145 3.4987161979530947 -0.8994329697448965 -14.723593376892257 61.85339711137633 14.972819664825433 14.119981330560782 34.5487884061315 4.674516719864013 80.20271101503283 21.04269573251662 0.0211135795851443 -7.600116514667046 4.510197296562927 -0.16929465583208578 -1.6042395656415493 -0.02412646116593186 0.03312137994054453 -56.21542217792502 -0.045128269862841075 0.03926193935769774 -56.23706101542897 -38.79887720292004 0.026174615638535206 0.034607106676727464 -0.02552801832493215 -0.008495695723447617 0.04886219143076973 -0.029858534912702853 0.016613063250852024 0.022297404863866305 -36.69944203498079 0.020437380112753464 -0.03245068625044213 0.003006676831468953 -0.03460605323287321 0.012281447698960338 -0.006416023082147162 -0.04964205507676979 0.0014269267131332536 -19.723721932215938 -0.04161370529383093 -0.010245497824844168 -0.030239617873560665 -0.012823809213853614 -0.018748260836880533 0.0329547000115174 -0.008271175605856218 -0.022865558918149866 24.09191494724631 -0.031162536137839758 0.03864200317293013 28.84401432298021 -0.00023182741342770336 -0.014632534913862552 28.887012911372683 -0.026513140130454867 -0.01023264388306219 1.9891402301610055 0.7106758682532044 13.35161819331922 -53.770666891116406 20.581487672802623 -39.509520003203804 9.319254510943134 -0.39200080506906637 -83.77685745662883 -18.421187891402397 10.58660708366286 -7.994458929318606 -0.5173000839530172 0.07072173375088717 -8.128034076561836 -0.01668366695531313 0.046993050121317784 44.551477391702015 0.024170675708536832 -0.02070174684442202 44.60115853157718 12.453294818964212 -0.005043240096352092 0.03754145363057748 -0.0012479077923251733 0.0496066918592603 -0.011172598761760069 -0.03380302025318863 0.007407859176529766 -0.04347812731720845 11.06633050855057 -0.015201722327498945 -0.0041583625762422515 0.008465208979028653 0.01162439885102369 0.02467812360620828 0.033264627283880646 -0.02158290841811672 0.03359052169847831 4.732974379398199 -0.038232289125007986 -0.00536820122188288 -0.0167458957061749 0.020778034679728944 0.006964020155382983 -0.012731649276551536 0.0165513600587151 0.030341835816368328 -5.603389285006611 -0.0013641965602913821 -0.0066125540165607325 -6.710871550067179 0.0005373462521362612 0.04115609555652161 -6.748540669899505 0.009842293680618964 0.007235119130907226 -0.03560905695576063 0.0393769801394734 -0.03380535081879853 8.02046147801716 3.449090246164525 -19.218174643987986 0.01982689093965399 10.37663671077265 0.011789973144866647 -5.637315596928628 -15.652551015457783 3.1505035974078117 0.02462521887162643 0.030252722584934125 -0.012496072074017687 -0.0014182974634594288 4.713536886932112 -0.017729414285855533 12.439693447631662 -8.255218803579728 6.83752281051004 0.024336924126385412 46.331237166948966 -0.045084732858461596 -4.3661990397967205 -14.737253961011547 -3.8640733537029317 0.0003082102954969469 0.027092848296522476 0.015427831244282366 0.016376797932554647 -10.76929285322457 -0.019333915012311416 
0.014061769232413403 -0.027640842058455534 0.01213014328834584 0.035895749687734485 0.00465477418062825 0.004557136361172438 -3.4584788905298915 4.004314341684102 -0.8101434492408066 -0.7559224677604874 4.508382394963 0.3567034499454789 -0.7323333914707165 -0.19410326124355065 -1.5052628232312133 1.4187122691596237 0.41937489726293653 -0.9493282677581685 -0.9898965960525038 13.311646415176359 -1.1924704004692375 -0.21214358319115365 -1.0085495079769276 -3.4871569078529188 0.15920054973419936 -15.686210948980394 -0.22268663467259958 3.4852899475623973 -0.8799894540738958 -14.740582236187809 61.424857620683696 14.85927780386538 14.097033901510876 32.496463115044115 4.949775087171438 79.56872471647613 22.186109138720127 0.048452477679497376 -7.769195170243144 4.524764145846399 -0.12444882426553958 -1.6276455948640887 0.01916079870296942 -0.017861935644902207 -56.25268706890629 0.01971581707413997 0.02176215465431432 -56.20983485677076 -38.80363836590508 -0.005363702005621212 -0.03111522210808585 -0.030245441385701913 -0.031934311954974925 0.004108452271677699 -0.04858322869804521 0.036049146039103246 -0.01001771782841955 -36.70884019371046 -0.03817010895410328 -0.00897581694869319 -0.02828926915828753 -0.01912657317716089 -0.002144136077274385 0.014633011557655213 -0.012793338585781319 -0.025137868098975558 -19.77663718275897 0.011309961094994584 0.02261005746515066 0.010278648808200347 0.02635613955240491 0.0060319997987203266 0.03854584189115717 0.022693741465214422 -0.016325587462117208 24.07692457921845 -0.00854003338946372 0.014405456760157991 28.912471214629594 -0.00257673040476833 0.003764929400108226 28.81873111435485 -0.0048775068440740105 0.017426832174296036 2.124565476853676 0.7552324328747922 13.49019737989118 -53.376333961929305 18.36011836719807 -40.036823334545886 11.229304908084854 -1.405662638148843 -83.4535200803716 -19.387749232757635 11.071062983171572 -8.502306862582932 -0.46680647819222426 0.08315954591990746 -8.157538519779665 -0.01782382845456186 0.00409556948085029 44.553021386349535 -0.012185745507375265 0.01311992235807059 44.57827599286878 12.46349879365093 -0.0024777399658193915 0.030576904414995384 -0.02581733290389138 -0.007968805878147609 0.009352391600347515 -0.015497840887400588 -0.01786783940829896 0.03699647991785507 11.116792043124862 0.02668310867286039 -0.039359382586833726 -0.044340632439562516 0.009199582519725514 -0.020209123131750703 -0.046589302536011665 0.03466787655182571 0.03865515975696406 4.761472839086999 0.006866788272028901 -0.005588423859456519 -0.012134006478957873 -0.015574578997484465 -0.026805735691880245 -0.011987578462582308 0.018189924691285775 0.022159133275502143 -5.614689476097796 -0.01119644481176515 0.03018707780670872 -6.690598619706822 -0.029625665421372956 -0.017046925994881078 -6.73915689379472 0.010601430583396366 -0.03859385471232467 -0.007844232497167026 0.003326440417859783 -0.026541629005948742 8.014427597485284 3.4767374540864573 -19.25016435223182 0.021682434839765126 10.39591815137668 -0.005122561763109955 -5.573645064972605 -15.701499266032265 3.18697548885064 -0.04108817540345058 -0.007642286347327357 0.004967514480960623 0.0384496046310412 4.676307541809929 0.045918910136181705 12.493941340736646 -8.229603990456452 6.927899986343039 0.03159774488726204 46.41453625269897 -0.0017745249073105919 -4.295460377093782 -14.78186625701761 -3.8590390389488802 -0.03200357632523856 0.0369413400697576 0.010755080874967411 -0.02009795458893744 -10.70424777586436 -0.032012259662135924 
0.03162970475326873 0.03889401113627949 0.00947330470548461 -0.044802571324024765 -0.04041269512305565 0.049094778346133405 -3.3372356298635784 3.891766267565388 -0.8049897501827855 -0.7443636862316189 4.470629695103623 0.35423842933346344 -0.7342517411976384 -0.2536919654914974 -1.493198349306793 1.3765580232106218 0.3031277000001851 -0.8908883241270303 -1.027645396517463 13.316432187286736 -1.2208769915931006 -0.2461705686389058 -1.0913482717741714 -3.4818986752472383 0.13754474905111685 -15.770184208003037 -0.26596763247613187 3.5436729102060265 -0.917988786620756 -14.770472549081338 61.013452312054284 14.801435615926213 14.04772769474757 30.728392401376674 5.769961879941792 79.13730900471018 23.315491700216647 0.061270202191624074 -7.698982202289266 4.5353448916931 -0.08572687386265365 -1.5887891251986528 -0.02108109307489134 0.03984150544734548 -56.210679744512404 -0.022358653622916967 -0.019295081947980058 -56.199036003887684 -38.809098928707996 -0.0013690828485725677 0.03127415972753389 0.009944568869011003 0.028339065704176002 -0.034794176285313824 -0.01664209824840426 -0.03461190254591461 -0.019987830082189965 -36.72574986124276 -0.036685578254021724 -0.01845920469046969 0.023515668234237886 -0.03333638280765434 -0.012250601997062684 -2.100904080962564e-05 -0.019714006347315505 -0.03354257224192092 -19.764173764489353 0.006436646503137038 -0.017000773551292765 0.012972564272940279 0.037168764899072594 -0.0054700971327125624 0.009100834167521126 0.03551590464052633 0.01640131137495508 24.00793092969715 0.03654307653282589 0.028813661114870666 28.902547314722543 0.015382775372527342 -0.021411887060231474 28.835610082261574 0.0001952474904964544 0.035624788454806745 2.3104078396469085 0.7549306421895354 13.473813988951077 -53.15450501566811 16.35012083384246 -40.849109627253405 12.58655308465905 -2.0854045432814576 -83.31116950258976 -20.351167169316078 11.798924734440947 -9.250709714535045 -0.4310333456305559 0.09470366727733534 -8.0743309007646 0.011545592388228108 0.037789487199609145 44.607573895924574 0.04334028307701445 -0.038482039610965926 44.54206205676787 12.504726507216338 -0.008098347027308042 -0.0015479712488334586 -0.035731278323817645 -0.014466821610362727 0.011216585755989517 -0.03473796509314729 -0.036312975423725656 0.007348133101906098 11.150114511623327 -0.048801122898212985 0.01600593764067016 0.010445252162604637 -0.029204109926422712 0.009829877865351132 0.0060400119341648874 0.025888237662382647 -0.024612327646024224 4.749029548561199 -0.026328516629866367 0.009288378723932643 -0.021910767957918756 0.0037153082100349574 0.03552238526077565 -0.037331266270031686 0.006116180692558453 0.002247869125174051 -5.598766780438569 -0.012891043457623928 -0.0036668460849270347 -6.739066715706574 -0.019021589931672075 -0.04538985605131898 -6.752676640137467 -0.03729189845081705 0.0007708366406464123 0.03562183180489113 -0.021232511121656562 -0.03866912825140602 8.079267543881834 3.4888049793687537 -19.17144820315088 -0.02160156093148006 10.345408032517112 0.019369369707995833 -5.576107070098571 -15.676951462084075 3.1960987444864832 0.03200966948553438 0.04837303330946632 -0.021426779837886167 0.03877460984145356 4.708812236858412 -0.01893098813479906 12.43587364914917 -8.268189532867048 6.863028117862736 -0.037169309020842645 46.35074457121514 -0.03632093487184089 -4.3724997762587865 -14.769086575863387 -3.8815306223478068 -0.01762249396669478 0.032772261251338954 0.017631240097823287 0.025261394006872776 -10.69580091918611 -0.04331274912758279 
-0.027461397329843693 -0.02137856963428829 -0.01209429589798499 0.027804237203243955 -0.018506363952904347 0.03538121219133033 -3.258114711491561 3.882844683533598 -0.829880993919585 -0.6609027585652673 4.45230177942089 0.3131846424987921 -0.6617691047073688 -0.37232275212940297 -1.4475726719016409 1.2910377273371387 0.15329838432958084 -0.8834243353401021 -1.0214637962892432 13.455115865914532 -1.1261466688489736 -0.20155685397832754 -1.180660491403734 -3.3947872370419585 0.1925039958309289 -15.958365248737394 -0.28495107060292096 3.658971275539686 -0.8978532476673308 -14.637673786389776 60.596582113814925 14.751768750964048 13.941860088560388 29.174729263153022 7.010693016492625 78.80465495293014 24.257239677965273 0.07379175054279667 -7.650189446921113 4.51468357198992 -0.12174610909861514 -1.557129511747606 0.009631885028509781 0.029810138575277197 -56.233234882292955 -0.018435846321365173 -0.04438095470647391 -56.23479042191567 -38.777209602857894 -0.031718148273912845 -0.016512286517974612 0.02782369148493295 -0.04058007365447282 -0.04239096525336832 0.006117394562726836 -0.04528068817918793 -0.024786121603564113 -36.69894917801602 0.009169397366316471 -0.020161895411209284 -0.04987459095735756 -0.039623319343135247 0.008172371123857358 -0.013028800392134514 0.0009783198891373432 -0.020903177684828772 -19.709929512076272 0.013172088683728956 -0.0017937928519880754 -0.006270967263733012 -0.04533379162208112 -0.01782359076742071 0.00608589005167203 0.022525049938230995 0.02206165864305278 24.04988871380339 -0.021511464518372065 -0.02762105171115999 28.850219572240366 0.02479296397509309 -0.004527467492704592 28.843159646081524 -0.01182548225810843 0.007074900042069935 2.6054240111027536 0.7968808525005923 13.552369041034261 -53.008240225500494 14.537431836586318 -41.83151880266945 13.583564579545614 -2.477582081762587 -83.09180028874117 -21.26972829130036 12.542800499137407 -10.000718399235083 -0.4334063244365281 0.08834132053961088 -8.171857844879792 0.017226864503868154 -0.042583071083798635 44.61620145432828 0.00861111240510801 -0.018553627589958696 44.55538590531537 12.451232178797701 -0.037589456648796746 0.008548920863406253 0.0015583037247808493 0.04336225862323139 -0.02040648257112263 -0.019591597172160195 0.009317293182505609 -0.02103891023638419 11.065692536288298 -0.03609940155028533 0.022625072507467144 0.0393217569926043 0.02182956934147441 -0.02919449321517184 -0.0015852886361070353 -0.022267451336229507 -0.01087280055253682 4.778271670950017 -0.006650301007165633 -0.0016422812800818342 -0.018512478295471965 0.010813239144000812 0.015539728351251014 -0.008900090235484012 -0.0396296553675253 0.03126249151470697 -5.571410388744441 0.010738441344313671 -0.02435483098785428 -6.713380276517729 -0.040208555136957785 -0.03164583428255917 -6.6923139143015495 -0.024885226624548184 -0.028522377992916858 -0.025936353145689463 -0.01984366426152671 -0.045934239804268646 8.085065559892158 3.52662586339519 -19.206431146931937 -0.028781196068547777 10.3879899284824 0.014917435259549446 -5.661697339120155 -15.6346128104275 3.211791060609942 0.038356306233193804 -0.019647198234721268 0.028010275653822053 0.026050167156002772 4.69289112697078 0.03757662928393337 12.504225251338038 -8.237243198834452 6.890468887644269 0.003518558382289962 46.37739512599618 0.01611761355686598 -4.29526927366338 -14.769803435014895 -3.815069353804029 0.016792423982068486 -0.041276125695771035 -0.048947029672525434 -0.004971012491877402 -10.711858268464002 0.04999214164986967 
